<svg width="40" height="46" viewBox="0 0 40 46" fill="none" xmlns="http://www.w3.org/2000/svg">
<path d="M38.353 1.7013C37.2992 0.635498 35.8887 0.0452056 34.3809 0.0288086H9.1862C6.10577 0.0288086 3.57658 2.57035 3.57658 5.70218V7.75181H1.35543C0.609639 7.75181 0.00976562 8.3585 0.00976562 9.11276C0.00976562 9.86702 0.609639 10.4737 1.35543 10.4737H3.57658V16.9669H1.35543C0.609639 16.9833 0.00976562 17.59 0.00976562 18.3443C0.00976562 19.0985 0.609639 19.7052 1.35543 19.7052H3.57658V26.1985H1.35543C0.609639 26.1985 0.00976562 26.8215 0.00976562 27.5758C0.00976562 28.3301 0.609639 28.9368 1.35543 28.9368H3.57658V35.43H1.35543C0.609639 35.43 0.00976562 36.0367 0.00976562 36.7909C0.00976562 37.5452 0.609639 38.1519 1.35543 38.1519H3.57658V40.2015C3.57658 43.3333 6.08956 45.8749 9.1862 45.8749H34.3809C37.4775 45.8749 39.9905 43.3333 39.9905 40.2015V5.70218C39.9905 4.19365 39.4068 2.76711 38.353 1.7013ZM6.28411 38.1683H8.48905C9.23484 38.1683 9.83471 37.5616 9.83471 36.8073C9.83471 36.0531 9.23484 35.4464 8.48905 35.4464H6.28411V28.9532H8.48905C9.23484 28.9532 9.83471 28.3465 9.83471 27.5922C9.83471 26.8379 9.23484 26.2313 8.48905 26.2313H6.28411V19.738H8.48905C9.23484 19.738 9.83471 19.1313 9.83471 18.3771C9.83471 17.6228 9.23484 17.0161 8.48905 17.0161H6.28411V10.4737H8.48905C9.23484 10.4737 9.83471 9.86702 9.83471 9.11276C9.83471 8.3585 9.23484 7.75181 8.48905 7.75181H6.28411V5.70218C6.28411 4.07887 7.59735 2.75071 9.20241 2.75071H34.3809C35.9859 2.75071 37.283 4.07887 37.2992 5.70218V40.2015C37.2992 41.8248 35.9859 43.1366 34.3809 43.153H9.20241C7.59735 43.153 6.30033 41.8248 6.28411 40.2015V38.1683Z" fill="#662C91"/>
<path d="M21.7837 22.6405C24.6371 22.6405 26.9556 20.2957 26.9556 17.4098C26.9556 14.524 24.6371 12.1792 21.7837 12.1792C18.9302 12.1792 16.6118 14.524 16.6118 17.4098C16.6118 20.2957 18.9302 22.6405 21.7837 22.6405ZM21.7837 14.3272C23.4536 14.3272 24.8155 15.7046 24.8155 17.3935C24.8155 19.0823 23.4536 20.4597 21.7837 20.4597C20.1138 20.4597 18.7519 19.0823 18.7519 17.3935C18.7519 15.7046 20.1138 14.3272 21.7837 14.3272Z" fill="#662C91"/>
<path d="M14.9416 33.7411H28.6252C29.2089 33.7411 29.6953 33.2656 29.6953 32.6589C29.6953 28.0186 26.2257 24.3784 21.7834 24.3784C17.3411 24.3784 13.8716 28.0186 13.8716 32.6589C13.8716 33.2492 14.358 33.7411 14.9416 33.7411ZM21.7834 26.5264C24.7179 26.5264 27.0202 28.6252 27.4741 31.5767H16.0927C16.5467 28.6416 18.8327 26.5264 21.7834 26.5264Z" fill="#662C91"/>
</svg>
