<svg width="18" height="17" viewBox="0 0 18 17" fill="none" xmlns="http://www.w3.org/2000/svg">
<path d="M9.72027 8.44826V5.0137C9.72027 4.61489 9.39884 4.29346 9.00003 4.29346C8.60122 4.29346 8.27979 4.61489 8.27979 5.0137V8.8054C8.27979 9.0316 8.38693 9.24588 8.5655 9.38279L11.0953 11.2816C11.2203 11.3769 11.3691 11.4245 11.5298 11.4245C11.762 11.4245 11.9703 11.3173 12.1072 11.1328C12.2203 10.978 12.2739 10.7876 12.2441 10.5971C12.2143 10.4066 12.1191 10.2399 11.9643 10.1209L9.72027 8.44826Z" fill="white"/>
<path d="M9.00008 0.507812C4.45242 0.507812 0.75 4.21023 0.75 8.75789C0.75 13.3056 4.45242 17.008 9.00008 17.008C13.5477 17.008 17.2502 13.3056 17.2502 8.75789C17.2502 4.21023 13.5477 0.507812 9.00008 0.507812ZM15.8097 8.75789C15.8097 12.5139 12.7561 15.5675 9.00008 15.5675C5.24409 15.5675 2.19049 12.5139 2.19049 8.75789C2.19049 5.0019 5.24409 1.9483 9.00008 1.9483C12.7561 1.9483 15.8097 5.0019 15.8097 8.75789Z" fill="white"/>
</svg>
